<svg xmlns="http://www.w3.org/2000/svg" width="152.771" height="80"><path d="M13.543 52.878c-2.558-1.2-4.667-2.163-4.667-4.126 0-1.493 1.2-2.582 3.568-2.582a12.617 12.617 0 0 1 2.313.235 6.879 6.879 0 0 0 1.136.125c2.064 0 3.23-1.229 4.008-3.566l.313-.961a21.644 21.644 0 0 0-8.1-1.612c-7 0-10.689 4.488-10.689 9.143a7.884 7.884 0 0 0 1.888 5.4A16.982 16.982 0 0 0 8.89 58.75c2.879 1.413 5.486 2.46 5.486 4.559 0 1.86-1.923 2.922-4.493 2.922a14.049 14.049 0 0 1-6.993-2.26L.002 69.399a19.97 19.97 0 0 0 10.361 2.646c6.539 0 11.482-3.75 11.482-9.509 0-5.734-4.582-7.862-8.3-9.657M39.095 55.553l11.849-14.527H42.5l-9.446 12.533h-.14V41.026h-6.965l.007 30.774h.413c3.009 0 6.583-1.39 6.583-6.41v-7.07h.144l9.638 13.1h8.859ZM51.339 8.058c-2.45.466-6.085 2.684-6.068 6.619 0 3.571 2.926 5.735 2.936 10.416a8.283 8.283 0 0 1-4.025 7.206 33.03 33.03 0 0 1 2.8-.128 23.22 23.22 0 0 1 3.52.212l10.983-13.478a45.632 45.632 0 0 0-10.15-10.847M60.573 44.484c1.384-2.152 1.556-5.585 1.676-9.086.127-3.263.806-5.718 5.169-5.729.967 0 1.888.126 3.557.123a25.66 25.66 0 0 0 13.158-3.676 45.573 45.573 0 0 0-22.647-7.212c-.628 1.76-5.491 15.291-5.859 16.385a18.556 18.556 0 0 1 1.973 2.886 32.205 32.205 0 0 1 2.972 6.31" fill="#d6001f"/><path d="M37.358 33.428c-.56 0-.834-.371-.911-1.01S33.63 6.634 33.22 2.829c-.062-.562-.2-1.576-.2-1.941a.811.811 0 0 1 .833-.889c1.3-.017 8.392 1.653 15.931 6.934-2.173.61-6.1 2.871-6.08 7.545.017 4.136 2.976 6.412 2.993 10.563.025 6.749-7.734 8.386-9.341 8.386M61.199 46.279a5.109 5.109 0 0 0 .347.763.748.748 0 0 0 .675.421 1.538 1.538 0 0 0 .624-.167c.581-.269 23.532-10.952 26.993-12.55.505-.239 1.46-.666 1.77-.851a.822.822 0 0 0 .464-.723.8.8 0 0 0-.127-.455 28.077 28.077 0 0 0-6.366-5.634 28.34 28.34 0 0 1-14.4 4.162c-1.672 0-2.05-.108-3.2-.1-3.345.01-4.177 1.438-4.3 4.373-.02.553-.029 1.294-.064 2.113-.108 2.621-.417 6.232-2.418 8.652M97.067 72.22C94.52 79.108 91.24 80 88.422 80a8.5 8.5 0 0 1-3.608-.791l1.062-3.226a5.389 5.389 0 0 0 2.356.63c2.238 0 3.643-1.252 4.881-5.136 0 0-7.608-16.56-7.693-16.766a7.548 7.548 0 0 1 2.087-.322c2.464 0 3 1.535 3.641 3.074l4.04 9.738h.115l4.061-12.491h4.217ZM152.771 71.416l-5.887-8.547 5.766-8.375h-4.964l-4.018 6.136c-1.078-1.693-2.1-3.3-2.414-3.787-.806-1.237-1.531-2.484-3.364-2.448a5.2 5.2 0 0 0-.771.087 7.659 7.659 0 0 0-2 .691c.063.1 2.821 4.009 5.459 7.817l-5.8 8.425h4.965l4.032-6.156 4.039 6.156ZM106.997 60.205v11.21h4.211V59.769a5.626 5.626 0 0 1 3.382-1.643c2.165 0 3.29 1.569 3.29 3.612v9.678h4.2V60.684c0-5.1-3.918-6.223-6.106-6.223a7.481 7.481 0 0 0-5.063 2.211 2.717 2.717 0 0 0-2.814-1.837 8.269 8.269 0 0 0-1.577.207 23.024 23.024 0 0 1 .476 5.164M131.469 49.666a2.6 2.6 0 1 1-2.6-2.526 2.557 2.557 0 0 1 2.6 2.526M126.784 54.722h4.171v16.694h-4.171zM71.985 56.626a8.592 8.592 0 0 1 5.425-2.236c3.263 0 5.679 1.7 5.679 5.855v11.171h-4.362V61.44c0-1.836-1.017-3.264-2.933-3.264a6.355 6.355 0 0 0-3.809 1.8v11.436h-4.328v-25.48h.914a3.315 3.315 0 0 1 3.414 3.521Z" fill="#ed6900"/></svg>