<svg xmlns="http://www.w3.org/2000/svg" width="112.928" height="111" viewBox="0 0 112.928 111"><g transform="translate(-1022 -429)"><g transform="translate(527.413 178.677)"><path d="M517.659,332.332a11.889,11.889,0,1,1,10.639-6.558A11.811,11.811,0,0,1,517.659,332.332Zm0-19.647a7.758,7.758,0,1,0,7.757,7.745A7.753,7.753,0,0,0,517.659,312.685Z" fill="#aab2bd"/><path d="M496.659,361.323a2.072,2.072,0,0,1-2.072-2.072c0-12.41,3.55-20.1,11.511-24.945,7.691-4.677,15.492-4.677,23.184,0a2.072,2.072,0,1,1-2.153,3.541c-6.44-3.917-12.439-3.916-18.879,0-4.707,2.863-9.52,7.645-9.52,21.4A2.072,2.072,0,0,1,496.659,361.323Z" fill="#aab2bd"/><path d="M584.443,332.332a11.891,11.891,0,1,1,10.627-6.558A11.851,11.851,0,0,1,584.443,332.332Zm0-19.647a7.755,7.755,0,1,0,7.746,7.745A7.76,7.76,0,0,0,584.443,312.685Z" fill="#aab2bd"/><path d="M605.443,361.323a2.072,2.072,0,0,1-2.071-2.072c0-13.759-4.813-18.541-9.521-21.4-6.44-3.917-12.439-3.917-18.879,0a2.072,2.072,0,0,1-2.152-3.541c7.691-4.677,15.492-4.677,23.184,0,7.961,4.842,11.511,12.535,11.511,24.945A2.072,2.072,0,0,1,605.443,361.323Z" fill="#aab2bd"/><path d="M551.051,332.332a11.889,11.889,0,1,1,10.639-6.558A11.812,11.812,0,0,1,551.051,332.332Zm0-19.647a7.756,7.756,0,1,0,7.758,7.745A7.754,7.754,0,0,0,551.051,312.685Z" fill="#aab2bd"/><path d="M572.114,361.323a2.072,2.072,0,0,1-2.071-2.072c0-13.759-4.813-18.541-9.521-21.4-6.441-3.917-12.44-3.916-18.879,0-4.708,2.863-9.52,7.645-9.52,21.4a2.072,2.072,0,1,1-4.144,0c0-12.41,3.55-20.1,11.511-24.945,7.692-4.677,15.493-4.677,23.185,0,7.961,4.842,11.511,12.535,11.511,24.945A2.072,2.072,0,0,1,572.114,361.323Z" fill="#aab2bd"/></g><g transform="translate(1040.888 429)"><path d="M57.62,12.429c-.025-1.3-.048-2.534-.048-3.725a1.689,1.689,0,0,0-1.69-1.69c-7.226,0-12.727-2.077-17.313-6.535a1.689,1.689,0,0,0-2.356,0C31.628,4.938,26.127,7.014,18.9,7.014a1.69,1.69,0,0,0-1.69,1.69c0,1.191-.023,2.423-.048,3.726-.232,12.128-.549,28.738,19.674,35.748a1.688,1.688,0,0,0,1.107,0C58.168,41.168,57.852,24.557,57.62,12.429ZM37.391,44.788c-17.344-6.3-17.081-20.1-16.849-32.294.014-.732.027-1.441.037-2.136,6.767-.286,12.179-2.336,16.812-6.372,4.633,4.036,10.046,6.087,16.813,6.372.009.695.023,1.4.037,2.135C54.474,24.686,54.736,38.488,37.391,44.788Z" transform="translate(0 0)" fill="#4747b3"/><path d="M83.028,79.381l-8.155,8.154-3.48-3.48A1.69,1.69,0,0,0,69,86.445l4.675,4.675a1.69,1.69,0,0,0,2.389,0l9.349-9.349a1.689,1.689,0,1,0-2.389-2.39Z" transform="translate(-39.819 -61.114)" fill="#4747b3"/></g></g></svg>