<?xml version="1.0" encoding="UTF-8"?>
<svg id="Layer_1" data-name="Layer 1" xmlns="http://www.w3.org/2000/svg" viewBox="0 0 486.88 90.71">
  <defs>
    <style>
      .cls-1 {
        fill: #ea002c;
      }

      .cls-2 {
        fill: #ff7a00;
      }
    </style>
  </defs>
  <g>
    <path class="cls-1" d="M40.66,36.38c-6.87-3.22-12.51-5.82-12.51-11.07,0-4.03,3.21-6.95,9.56-6.95,2.34,0,4.25,.28,6.21,.64,1.03,.17,2.13,.33,3.05,.33,5.55,0,8.68-3.31,10.77-9.59l.86-2.56c-.9-.36-9.95-4.35-21.78-4.35C18.02,2.83,8.09,14.89,8.09,27.4c0,6.32,1.97,10.89,5.07,14.49,3.98,4.63,9.66,7.67,14.98,10.26,7.75,3.8,14.74,6.61,14.74,12.24,.01,5.01-5.16,7.84-12.06,7.84-9.47,0-17.74-5.41-18.79-6.06l-7.78,14.56c1.38,.78,11.4,7.13,27.87,7.13,17.55-.01,30.83-10.06,30.83-25.55s-12.31-21.11-22.3-25.95Z"/>
    <path class="cls-1" d="M109.31,43.57L141.14,4.54h-22.68l-25.4,33.68h-.39V4.54h-18.69V87.22h1.12c8.08,0,17.71-3.74,17.71-17.24v-18.99h.37l25.89,35.2h23.79l-33.56-42.63Z"/>
  </g>
  <path class="cls-2" d="M467.44,40.46c-9.84,0-14.89,6.47-15.68,7.46-2.48-4.69-7.05-7.46-13.04-7.46-8.68,0-13.59,5.03-14.4,5.84-.36-1.35-2.13-5.02-7.72-5.02-1.62,0-3.98,.52-4.18,.56,.23,1.06,1.29,6.18,1.29,13.24v31.12h11.39v-31.73c.23-.2,4.49-4.51,9.61-4.51s7.68,3.83,7.68,9.05v27.19h11.43v-31.74c.23-.22,4.41-4.5,9.61-4.5s7.6,3.83,7.6,9.05v27.19h11.48v-28.96c0-10.17-5.8-16.78-15.06-16.78Z"/>
  <path class="cls-2" d="M342.53,77.98c-7.73,0-13.26-6.12-13.26-14.11,0-8.9,6.28-14.21,13.26-14.21,3.76,0,5.34,1.15,7.84,1.15,2.67,0,4.08-1.29,5.4-3.85,.72-1.42,1.15-2.24,1.15-2.24-.56-.36-6.34-4.28-16.12-4.28-14.36,0-22.96,10.29-22.96,23.43,0,14.33,9.83,23.33,22.96,23.33,9.51,0,15.28-3.88,16.3-4.61l-3.95-7.8c-.88,.56-4.95,3.19-10.62,3.19Z"/>
  <path class="cls-2" d="M208.81,58.88c0-5.12,3.59-9.86,8.62-9.86,5.63,0,8.73,4.89,8.82,9.86h-17.44Zm8.79-18.42c-10.91,0-20.13,8.88-20.13,23.42s8.93,23.32,22.28,23.32c10.6,0,16.11-4.63,16.77-5.06,0,0-1.04-1.69-1.32-2.15-1.5-2.44-3.19-3.22-5.07-3.22-3.75,0-4.23,1.55-9.32,1.55-8.74,0-11.75-6.81-11.97-11.35h29.24v-3.39c0-13.95-8.03-23.12-20.48-23.12"/>
  <path class="cls-2" d="M257.57,73.6V27c0-5.26-3.51-9.33-8.96-9.33h-2.44v60.51c0,5.57,3.44,9.02,9.44,9.02,7.41,0,9.62-5.26,9.62-10.21-.31,.17-1.88,.81-3.46,.81-2.64,0-4.2-1.53-4.2-4.19Z"/>
  <path class="cls-2" d="M181.37,72.02v-22.15h9.52l3.32-8.58h-12.84v-13.4s-1.02,0-1.06,0c-5.07,0-10.33,2.16-10.33,13.3v.1h-8.43v8.58h8.43v26.09c0,7.4,4.36,11.24,10.57,11.24,5.02,0,11.48-1.52,11.48-11.45-.39,.23-2.81,1.8-5.48,1.8-3.71,0-5.18-2.26-5.18-5.53Z"/>
  <path class="cls-2" d="M280.32,58.88c0-5.12,3.58-9.86,8.61-9.86,5.63,0,8.73,4.89,8.82,9.86h-17.43Zm8.78-18.42c-10.91,0-20.11,8.88-20.11,23.42s8.93,23.32,22.28,23.32c10.6,0,16.08-4.63,16.76-5.06,0,0-1.03-1.69-1.32-2.15-1.49-2.44-3.19-3.22-5.07-3.22-3.76,0-4.23,1.55-9.33,1.55-8.73,0-11.76-6.81-11.96-11.35h29.22v-3.39c0-13.95-8.03-23.12-20.48-23.12"/>
  <path class="cls-2" d="M383.21,78.43c6.99,0,11.02-6.01,11.02-14.58s-3.93-14.64-11.02-14.64-11,5.96-11,14.64,3.93,14.58,11,14.58Zm0,8.77c-13.95,0-22.34-9.21-22.34-23.35s8.28-23.41,22.34-23.41,22.36,9.31,22.36,23.41c0,13.31-7.65,23.35-22.36,23.35"/>
</svg>